<svg xmlns="http://www.w3.org/2000/svg" viewBox="0 0 2598.194 2598.194" role="img" aria-label="Moonweave logo"><path d="M820.04150390625 288.5910949707031V0.0H901.26318359375L873.1246337890625 117.5015640258789L909.581298828125 0.0H1104.9931640625L1244.0242919921875 469.923828125Q1264.574462890625 540.2144775390625 1283.5796508789062 612.5501098632812Q1302.5848388671875 684.8857421875 1321.635009765625 757.8563232421875Q1329.1553955078125 786.66259765625 1336.737060546875 815.0978393554688Q1344.2154541015625 786.6544799804688 1351.536376953125 757.8563232421875Q1370.0865478515625 684.8857421875 1389.13671875 612.5501098632812Q1408.1868896484375 540.2144775390625 1427.737060546875 469.923828125L1564.0380859375 0.0H1763.090087890625L2090.730224609375 1056.0H1890.23876953125L1760.896240234375 607.833984375Q1730.43603515625 499.6644287109375 1701.475830078125 386.135009765625Q1679.7525634765625 300.97589111328125 1657.74755859375 218.01499938964844Q1636.0709228515625 300.9841003417969 1614.6246337890625 386.17999267578125Q1586.03466796875 499.75439453125 1555.1246337890625 607.833984375L1428.4326171875 1056.0H1244.23876953125L1115.7266845703125 607.833984375Q1084.816650390625 499.75439453125 1055.771728515625 386.17999267578125Q1033.435546875 298.839111328125 1011.127685546875 213.84359741210938Q989.1840209960938 298.8445129394531 967.5104370117188 386.17999267578125Q939.3253173828125 499.75439453125 908.6851806640625 607.833984375L899.5720825195312 640.0H1010.733642578125V656.899658203125Q1010.733642578125 796.64013671875 959.3582153320312 889.64013671875Q907.9827880859375 982.64013671875 820.79248046875 1029.5Q803.0077514648438 1039.058349609375 784.3570556640625 1046.6671142578125L781.712890625 1056.0H758.9391479492188Q696.7943115234375 1076.35986328125 625.612548828125 1076.35986328125Q497.4637451171875 1076.35986328125 404.91876220703125 1007.880615234375Q349.69427490234375 967.0169067382812 309.0035400390625 899.7775268554688V1056.0H122.4013671875V0.0H313.093505859375V612.781982421875Q313.093505859375 715.6435546875 348.74920654296875 779.804443359375Q384.4049072265625 843.96533203125 444.7059326171875 873.9757080078125Q505.0069580078125 903.986083984375 579.3079833984375 903.986083984375Q606.1995239257812 903.986083984375 630.2507934570312 900.2957153320312L820.04150390625 288.5910949707031ZM828.0 609.0 911.0 414.0 859.0 395.0 776.0 590.0 828.0 609.0Z" fill="#000000" transform="translate(192.531 1837.277) scale(1 -1)"/></svg>