<svg xmlns="http://www.w3.org/2000/svg" viewBox="0 0 11732.348 3132.255" role="img" aria-label="Moonweave logo"><path d="M334.80975341796875 1186.428955078125Q334.65191650390625 1195.1279296875 334.4809875488281 1203.745361328125Q341.15911865234375 1185.4967041015625 347.74053955078125 1167.408203125Q372.7855224609375 1098.5743408203125 395.055419921875 1037.2006225585938Q417.3253173828125 975.826904296875 436.23016357421875 925.3130493164062Q455.135009765625 874.7991943359375 469.31494140625 838.08984375L801.8408203125 0.0H966.75439453125L1297.1903076171875 838.08984375Q1311.3702392578125 874.7991943359375 1329.7301025390625 925.3130493164062Q1348.0899658203125 975.826904296875 1369.85986328125 1037.2006225585938Q1391.6297607421875 1098.5743408203125 1415.7197265625 1167.408203125Q1425.769287109375 1196.12353515625 1435.9002685546875 1225.2509765625Q1435.46923828125 1206.04931640625 1434.9705810546875 1186.428955078125Q1433.380615234375 1123.8753662109375 1431.7456665039062 1062.4566650390625Q1430.1107177734375 1001.0379638671875 1429.4307861328125 943.6988525390625Q1428.7508544921875 886.3597412109375 1428.7508544921875 838.08984375V0.0H1626.532958984375V1490.0H1346.6158447265625L996.2076416015625 572.623046875Q983.7578125 538.10400390625 965.3529663085938 487.55035400390625Q946.9481201171875 436.9967041015625 927.498291015625 382.0382080078125Q908.0484619140625 327.0797119140625 891.1885986328125 277.89111328125Q889.22021484375 272.1484069824219 887.35009765625 266.6675720214844Q885.4255981445312 272.17022705078125 883.4118041992188 277.89111328125Q866.096923828125 327.0797119140625 846.6021118164062 382.0382080078125Q827.1072998046875 436.9967041015625 808.657470703125 487.55035400390625Q790.2076416015625 538.10400390625 776.8477783203125 572.623046875L420.7994384765625 1490.0H141.88232421875V0.0H340.574462890625V838.08984375Q340.574462890625 886.3597412109375 339.89453125 943.6988525390625Q339.214599609375 1001.0379638671875 337.57965087890625 1062.4566650390625Q335.9447021484375 1123.8753662109375 334.80975341796875 1186.428955078125ZM5064.9931640625 0.0 5204.0244140625 469.923828125Q5224.57421875 540.2144775390625 5243.57958984375 612.5501098632812Q5262.5849609375 684.8857421875 5281.634765625 757.8563232421875Q5289.1552734375 786.66259765625 5296.7373046875 815.0978393554688Q5304.21533203125 786.6544799804688 5311.5361328125 757.8563232421875Q5330.08642578125 684.8857421875 5349.13671875 612.5501098632812Q5368.18701171875 540.2144775390625 5387.7373046875 469.923828125L5524.0380859375 0.0H5723.08984375L6050.73046875 1056.0H5850.23876953125L5720.896484375 607.833984375Q5690.43603515625 499.6644287109375 5661.4755859375 386.135009765625Q5639.75244140625 300.97589111328125 5617.74755859375 218.01499938964844Q5596.07080078125 300.9841003417969 5574.62451171875 386.17999267578125Q5546.03466796875 499.75439453125 5515.12451171875 607.833984375L5388.4326171875 1056.0H5204.23876953125L5075.7265625 607.833984375Q5044.81640625 499.75439453125 5015.771484375 386.17999267578125Q4993.435546875 298.839111328125 4971.1279296875 213.84359741210938Q4949.18408203125 298.8445129394531 4927.51025390625 386.17999267578125Q4899.3251953125 499.75439453125 4868.68505859375 607.833984375L4859.572265625 640.0H4970.7333984375V656.899658203125Q4970.7333984375 796.64013671875 4919.358154296875 889.64013671875Q4867.98291015625 982.64013671875 4780.79248046875 1029.5Q4763.0078125 1039.058349609375 4744.35693359375 1046.6671142578125L4741.712890625 1056.0H4718.93896484375Q4656.79443359375 1076.35986328125 4585.6123046875 1076.35986328125Q4457.4638671875 1076.35986328125 4364.9189453125 1007.880615234375Q4309.6943359375 967.0169067382812 4269.00341796875 899.7775268554688V1056.0H4082.4013671875V0.0H4273.09375V612.781982421875Q4273.09375 715.6435546875 4308.749267578125 779.804443359375Q4344.40478515625 843.96533203125 4404.705810546875 873.9757080078125Q4465.0068359375 903.986083984375 4539.30810546875 903.986083984375Q4566.19970703125 903.986083984375 4590.2509765625 900.2957153320312L4780.04150390625 288.5910949707031V0.0H4861.26318359375L4833.12451171875 117.5015640258789L4869.5810546875 0.0H5064.9931640625ZM3853.6455078125 813.6747436523438Q3791.15576171875 938.539794921875 3679.4013671875 1009.2698974609375Q3567.64697265625 1080.0 3418.39794921875 1080.0Q3270.14892578125 1080.0 3157.89453125 1009.2698974609375Q3045.64013671875 938.539794921875 2983.1505126953125 813.6747436523438Q2920.660888671875 688.8096923828125 2920.660888671875 526.179931640625Q2920.660888671875 364.460205078125 2983.1505126953125 240.460205078125Q3045.64013671875 116.460205078125 3157.89453125 46.2301025390625Q3270.14892578125 -24.0 3418.39794921875 -24.0Q3567.64697265625 -24.0 3679.4013671875 46.2301025390625Q3791.15576171875 116.460205078125 3853.6453857421875 240.460205078125Q3916.135009765625 364.460205078125 3916.135009765625 526.179931640625Q3916.135009765625 688.8096923828125 3853.6455078125 813.6747436523438ZM2570.4013671875 1009.2698974609375Q2458.64697265625 1080.0 2309.39794921875 1080.0Q2161.14892578125 1080.0 2048.89453125 1009.2698974609375Q1936.64013671875 938.539794921875 1874.1505126953125 813.6747436523438Q1811.660888671875 688.8096923828125 1811.660888671875 526.179931640625Q1811.660888671875 364.460205078125 1874.1505126953125 240.460205078125Q1936.64013671875 116.460205078125 2048.89453125 46.2301025390625Q2161.14892578125 -24.0 2309.39794921875 -24.0Q2458.64697265625 -24.0 2570.4013671875 46.2301025390625Q2682.15576171875 116.460205078125 2744.6453857421875 240.460205078125Q2807.135009765625 364.460205078125 2807.135009765625 526.179931640625Q2807.135009765625 688.8096923828125 2744.6453857421875 813.6747436523438Q2682.15576171875 938.539794921875 2570.4013671875 1009.2698974609375ZM7732.9326171875 8.3304443359375Q7794.802734375 32.9307861328125 7832.5224609375 71.2508544921875Q7870.2421875 109.5709228515625 7890.681640625 149.820068359375H7894.681640625V0.0H8082.654296875V726.020751953125Q8082.654296875 805.100341796875 8054.29443359375 869.5951538085938Q8025.9345703125 934.0899658203125 7972.44482421875 980.2698974609375Q7918.955078125 1026.4498291015625 7842.74560546875 1051.4048461914062Q7766.5361328125 1076.35986328125 7671.83740234375 1076.35986328125Q7543.5087890625 1076.35986328125 7447.0244140625 1032.4048461914062Q7350.5400390625 988.4498291015625 7295.090087890625 912.2301025390625Q7239.64013671875 836.0103759765625 7234.2802734375 736.941162109375H7424.6435546875Q7428.6435546875 787.9619140625 7460.5693359375 828.1176147460938Q7492.4951171875 868.2733154296875 7546.47607421875 891.5587768554688Q7600.45703125 914.84423828125 7670.39794921875 914.84423828125Q7741.0693359375 914.84423828125 7791.230224609375 890.78369140625Q7841.39111328125 866.72314453125 7867.766357421875 824.6972045898438Q7894.1416015625 782.6712646484375 7894.1416015625 727.820068359375V718.35986328125Q7894.1416015625 679.3494873046875 7869.5966796875 663.1695556640625Q7845.0517578125 646.9896240234375 7787.186767578125 639.6747436523438Q7729.32177734375 632.35986328125 7629.04150390625 619.07958984375Q7549.501953125 609.439453125 7474.13671875 592.1245727539062Q7398.771484375 574.8096923828125 7339.63134765625 541.679931640625Q7280.4912109375 508.5501708984375 7245.39599609375 451.14532470703125Q7210.30078125 393.740478515625 7210.30078125 302.92041015625Q7210.30078125 197.92041015625 7258.575927734375 126.64532470703125Q7306.85107421875 55.3702392578125 7389.671142578125 19.5501708984375Q7472.4912109375 -16.2698974609375 7577.5810546875 -16.2698974609375Q7671.0625 -16.2698974609375 7732.9326171875 8.3304443359375ZM9514.1640625 46.95501708984375Q9625.23828125 -24.0 9781.048828125 -24.0Q9898.2080078125 -24.0 9994.59716796875 19.40484619140625Q10090.986328125 62.8096923828125 10155.15576171875 139.89447021484375Q10219.3251953125 216.979248046875 10239.2353515625 318.6090087890625H10052.681640625Q10037.1318359375 266.0380859375 10000.84619140625 225.97235107421875Q9964.560546875 185.9066162109375 9909.5849609375 163.53118896484375Q9854.609375 141.15576171875 9782.48828125 141.15576171875Q9683.4462890625 141.15576171875 9614.10009765625 186.36163330078125Q9544.75390625 231.5675048828125 9508.603515625 311.7889404296875Q9476.2470703125 383.5902404785156 9472.8515625 474.7716064453125H10255.9755859375V527.1695556640625Q10255.9755859375 649.8096923828125 10221.84619140625 751.0847778320312Q10187.716796875 852.35986328125 10123.72705078125 926.2249145507812Q10059.7373046875 1000.0899658203125 9970.11279296875 1040.0449829101562Q9880.48828125 1080.0 9769.408203125 1080.0Q9627.4287109375 1080.0 9517.9443359375 1008.5899658203125Q9408.4599609375 937.179931640625 9346.560546875 812.2249145507812Q9284.6611328125 687.2698974609375 9284.6611328125 526.179931640625Q9284.6611328125 367.0 9343.87548828125 242.45501708984375Q9403.08984375 117.9100341796875 9514.1640625 46.95501708984375ZM6992.15576171875 139.89447021484375Q7056.3251953125 216.979248046875 7076.2353515625 318.6090087890625H6889.681640625Q6874.13134765625 266.0380859375 6837.845947265625 225.97235107421875Q6801.560546875 185.9066162109375 6746.584716796875 163.53118896484375Q6691.60888671875 141.15576171875 6619.48779296875 141.15576171875Q6520.4462890625 141.15576171875 6451.100341796875 186.36163330078125Q6381.75439453125 231.5675048828125 6345.603515625 311.7889404296875Q6313.24755859375 383.5902404785156 6309.8515625 474.7716064453125H7092.9755859375V527.1695556640625Q7092.9755859375 649.8096923828125 7058.845947265625 751.0847778320312Q7024.71630859375 852.35986328125 6960.726806640625 926.2249145507812Q6896.7373046875 1000.0899658203125 6807.112548828125 1040.0449829101562Q6717.48779296875 1080.0 6606.408203125 1080.0Q6464.42919921875 1080.0 6354.944580078125 1008.5899658203125Q6245.4599609375 937.179931640625 6183.560546875 812.2249145507812Q6121.6611328125 687.2698974609375 6121.6611328125 526.179931640625Q6121.6611328125 367.0 6180.87548828125 242.45501708984375Q6240.08984375 117.9100341796875 6351.164306640625 46.95501708984375Q6462.23876953125 -24.0 6618.04833984375 -24.0Q6735.20751953125 -24.0 6831.596923828125 19.40484619140625Q6927.986328125 62.8096923828125 6992.15576171875 139.89447021484375ZM8611.2421875 0.0H8809.15234375L9214.453125 1056.0H9012.6708984375L8796.578125 462.39453125Q8768.3984375 383.515625 8742.71875 304.63671875Q8728.4443359375 260.7936096191406 8714.107421875 217.14193725585938Q8699.8701171875 260.8481140136719 8685.3115234375 304.63671875Q8659.0869140625 383.515625 8629.90625 462.39453125L8410.8134765625 1056.0H8205.94140625L8611.2421875 0.0ZM2146.455078125 864.3096313476562Q2215.076171875 911.785400390625 2309.39794921875 911.785400390625Q2404.7197265625 911.785400390625 2472.8408203125 863.8546142578125Q2540.9619140625 815.923828125 2577.6124267578125 729.7075805664062Q2614.262939453125 643.4913330078125 2614.262939453125 526.179931640625Q2614.262939453125 410.778564453125 2577.6124267578125 324.517333984375Q2540.9619140625 238.256103515625 2472.8408203125 191.2353515625Q2404.7197265625 144.214599609375 2309.39794921875 144.214599609375Q2214.166015625 144.214599609375 2146.0 191.2353515625Q2077.833984375 238.256103515625 2041.1834716796875 324.06231689453125Q2004.532958984375 409.8685302734375 2004.532958984375 526.179931640625Q2004.532958984375 643.4913330078125 2041.1834716796875 730.16259765625Q2077.833984375 816.8338623046875 2146.455078125 864.3096313476562ZM3150.18359375 730.16259765625Q3186.833984375 816.8338623046875 3255.455078125 864.3096313476562Q3324.076171875 911.785400390625 3418.39794921875 911.785400390625Q3513.7197265625 911.785400390625 3581.8408203125 863.8546142578125Q3649.9619140625 815.923828125 3686.6124267578125 729.7075805664062Q3723.262939453125 643.4913330078125 3723.262939453125 526.179931640625Q3723.262939453125 410.778564453125 3686.6124267578125 324.517333984375Q3649.9619140625 238.256103515625 3581.8408203125 191.2353515625Q3513.7197265625 144.214599609375 3418.39794921875 144.214599609375Q3323.166015625 144.214599609375 3255.0 191.2353515625Q3186.833984375 238.256103515625 3150.1834716796875 324.06231689453125Q3113.532958984375 409.8685302734375 3113.532958984375 526.179931640625Q3113.532958984375 643.4913330078125 3150.18359375 730.16259765625ZM7500.15576171875 162.6470947265625Q7453.22509765625 180.83740234375 7427.759521484375 214.89794921875Q7402.2939453125 248.95849609375 7402.2939453125 295.979248046875Q7402.2939453125 353.0103759765625 7434.6748046875 387.20587158203125Q7467.0556640625 421.4013671875 7519.306396484375 440.40655517578125Q7571.55712890625 459.4117431640625 7630.7578125 467.32177734375Q7674.228515625 473.2318115234375 7716.794189453125 480.00689697265625Q7759.35986328125 486.781982421875 7796.10546875 494.0120849609375Q7832.85107421875 501.2421875 7858.451416015625 508.9722900390625Q7884.0517578125 516.702392578125 7894.501953125 525.342529296875V397.660888671875Q7894.501953125 330.64013671875 7864.86181640625 273.1591796875Q7835.2216796875 215.67822265625 7772.42578125 180.0675048828125Q7709.6298828125 144.456787109375 7611.11767578125 144.456787109375Q7547.08642578125 144.456787109375 7500.15576171875 162.6470947265625ZM6607.39794921875 915.944580078125Q6698.88916015625 915.944580078125 6766.100341796875 874.4688110351562Q6833.3115234375 832.9930419921875 6870.2373046875 757.0916748046875Q6897.9365234375 700.1549072265625 6904.857421875 627.7889404296875H6311.75830078125Q6318.67919921875 700.15478515625 6346.37890625 757.0916748046875Q6383.3046875 832.9930419921875 6450.105712890625 874.4688110351562Q6516.90673828125 915.944580078125 6607.39794921875 915.944580078125ZM9474.7587890625 627.7889404296875Q9481.6796875 700.1560668945312 9509.37890625 757.0916748046875Q9546.3046875 832.9930419921875 9613.10546875 874.4688110351562Q9679.90625 915.944580078125 9770.3984375 915.944580078125Q9861.8896484375 915.944580078125 9929.1005859375 874.4688110351562Q9996.3115234375 832.9930419921875 10033.236328125 757.0916748046875Q10060.935546875 700.1560668945312 10067.8564453125 627.7889404296875H9474.7587890625ZM4871.0 414.0 4819.0 395.0 4736.0 590.0 4788.0 609.0 4871.0 414.0Z" fill="#000000" transform="translate(667.245 2299.127) scale(1 -1)"/></svg>